<?xml version="1.0" encoding="utf-8"?>
<!-- Generator: Adobe Illustrator 21.1.0, SVG Export Plug-In . SVG Version: 6.00 Build 0)  -->
<svg version="1.1" id="Layer_1" xmlns="http://www.w3.org/2000/svg" xmlns:xlink="http://www.w3.org/1999/xlink" x="0px" y="0px"
	 viewBox="0 0 879 667.1" style="enable-background:new 0 0 879 667.1;" xml:space="preserve">
<style type="text/css">
	.st0{fill:none;stroke:#000000;stroke-miterlimit:10;}
	.st1{font-family:'MyriadPro-Regular';}
	.st2{font-size:80.31px;}
	.st3{font-size:33.36px;}
	.st4{font-size:20.64px;}
	.st5{font-size:21.48px;}
	.st6{font-size:58.06px;}
	.st7{letter-spacing:-1;}
	.st8{font-size:19.35px;}
</style>
<title>Hangman</title>
<rect x="267" y="387.6" width="354" height="11"/>
<rect x="422" y="103.6" width="22" height="289"/>
<rect x="433" y="103.6" width="108" height="11"/>
<rect x="535" y="107.6" width="6" height="40"/>
<circle id="head" class="st0" cx="537.5" cy="177.1" r="31"/>
<rect id="body" x="534.5" y="208.1" class="st0" width="6" height="142"/>
<rect id="arms" x="473.5" y="240.1" class="st0" width="127" height="3"/>
<rect id="leg2" x="551.4" y="340.4" transform="matrix(0.7491 -0.6625 0.6625 0.7491 -103.7661 459.2022)" class="st0" width="5.8" height="52.4"/>
<rect id="leg" x="494.1" y="363.7" transform="matrix(0.7071 -0.7071 0.7071 0.7071 -106.8073 475.281)" class="st0" width="52.4" height="5.8"/>
<text transform="matrix(1 0 0 1 259 67.22)" class="st1 st2">HANG</text>
<text transform="matrix(1 0 0 1 465.24 67.22)" class="st1 st2">M</text>
<text transform="matrix(1 0 0 1 529 67.22)" class="st1 st2">AN</text>
<rect x="0.5" y="97.1" class="st0" width="197" height="280"/>
<rect x="695.5" y="398.1" class="st0" width="169" height="46"/>
<rect x="737.5" y="460.1" class="st0" width="84.5" height="23"/>
<rect x="681.5" y="86.1" class="st0" width="197" height="280"/>
<text transform="matrix(1 0 0 1 734 432.66)" class="st1 st3">ENTER</text>
<text transform="matrix(1 0 0 1 758 478.93)" class="st1 st4">HINT</text>
<text transform="matrix(1 0 0 1 724 76.73)" class="st1 st5">L</text>
<text transform="matrix(1 0 0 1 734.14 76.73)" class="st1 st5">E</text>
<text transform="matrix(1 0 0 1 745.05 76.73)" class="st1 st5">T</text>
<text transform="matrix(1 0 0 1 756.54 76.73)" class="st1 st5">TER B</text>
<text transform="matrix(1 0 0 1 805.52 76.73)" class="st1 st5">O</text>
<text transform="matrix(1 0 0 1 819.74 76.73)" class="st1 st5">X</text>
<text transform="matrix(1 0 0 1 43 86.73)" class="st1 st5">RULES B</text>
<text transform="matrix(1 0 0 1 115.93 86.73)" class="st1 st5">O</text>
<text transform="matrix(1 0 0 1 130.15 86.73)" class="st1 st5">X</text>
<rect id="guess_box_5" x="191" y="498.6" width="58" height="6"/>
<rect id="guess_box_4" x="295" y="498.6" width="58" height="6"/>
<rect id="guess_box_1" x="404" y="498.6" width="58" height="6"/>
<rect id="guess_box_2" x="519" y="498.6" width="58" height="6"/>
<rect id="guess_box_3" x="641" y="498.6" width="58" height="6"/>
<text transform="matrix(1 0 0 1 344 617.44)" class="st1 st6">S</text>
<text transform="matrix(1 0 0 1 372.62 617.44)" class="st1 st6 st7">C</text>
<text transform="matrix(1 0 0 1 405.08 617.44)" class="st1 st6">ORE: 1</text>
<rect x="302" y="567.6" class="st0" width="285" height="60"/>
<rect x="352.5" y="635.6" class="st0" width="182" height="31"/>
<text transform="matrix(1 0 0 1 368 657.69)" class="st1 st8">WINS: 1 | </text>
<text transform="matrix(1 0 0 1 442.12 657.69)" class="st1 st8">L</text>
<text transform="matrix(1 0 0 1 450.5 657.69)" class="st1 st8">OSSES: 1</text>
</svg>
